<svg id="Слой_1" data-name="Слой 1" xmlns="http://www.w3.org/2000/svg" width="196" height="328.02" viewBox="0 0 196 328.02">
  <title>footer-icon</title>
  <path d="M0,189l41-41v42L0,231Z" style="fill: #22262e"/>
  <path d="M42,231l41-41H41L0,231Z" style="fill: #19b3a2"/>
  <path d="M103,86l41-41V87l-41,41Z" style="fill: #22262e"/>
  <path d="M145,128l41-41H144l-41,41Z" style="fill: #19b3a2"/>
  <path d="M18,85.73,40,64V86.27L18,108Z" style="fill: #22262e"/>
  <path d="M40,108,62,86H39.73L18,108Z" style="fill: #19b3a2"/>
  <path d="M81,22.73,103,1V23.27L81,45Z" style="fill: #22262e"/>
  <path d="M103,45l22-22H102.74L81,45Z" style="fill: #19b3a2"/>
  <path d="M81,305.74,103,284v22.27L81,328Z" style="fill: #22262e"/>
  <path d="M103.26,328,125,306H102.74L81,328Z" style="fill: #19b3a2"/>
  <path d="M196,140.93l-59,58.69V273l59-58.69Z" style="fill: #22262e"/>
  <path d="M74.29,264.09,9,263.92l33.35-33.35,65.29.17Z" style="fill: #0d4545"/>
  <path d="M112.39,160.62l-30,30h30Z" style="fill: #22262f"/>
  <path d="M196,287.92l-40,40,40,.1Z" style="fill: #0d4545"/>
  <path d="M196,76.66l-11,11,11,0Z" style="fill: #0d4545"/>
  <path d="M112,160.92l63.92.17L196,141V128.4l-51.35-.13Z" style="fill: #0d4545"/>
  <path d="M82.5,66,62,86H82.5Z" style="fill: #22262f"/>
  <path d="M148.5,0,125,23h23.5Z" style="fill: #22262f"/>
  <path d="M123,66l-40.53-.11L103,45h41Z" style="fill: #0d4545"/>
  <path d="M61,129H19l21-21H81.5Z" style="fill: #0d4545"/>
  <path d="M196,273H137l59-59.31Z" style="fill: #19b3a2"/>
</svg>
